HIERARCHY
ROOT Hips
{
  OFFSET 377.763 88.2609 174.383
  CHANNELS 6 Xposition Yposition Zposition Zrotation Xrotation Yrotation
  JOINT RightUpLeg
  {
    OFFSET -9.30536 -1.56319 -0.0308412
    CHANNELS 3 Zrotation Xrotation Yrotation
    JOINT RightLeg
    {
      OFFSET -0.0509473 -41.8867 0.0408735
      CHANNELS 3 Zrotation Xrotation Yrotation
      JOINT RightFoot
      {
        OFFSET -0.135761 -42.7852 -0.897951
        CHANNELS 3 Zrotation Xrotation Yrotation
        End Site
        {
          OFFSET 0 -7.69 17.5
        }
      }
    }
  }
  JOINT LeftUpLeg
  {
    OFFSET 9.25165 -1.62789 -0.00729124
    CHANNELS 3 Zrotation Xrotation Yrotation
    JOINT LeftLeg
    {
      OFFSET 0.024936 -41.8804 0.00207043
      CHANNELS 3 Zrotation Xrotation Yrotation
      JOINT LeftFoot
      {
        OFFSET 0.245063 -40.7505 0.529473
        CHANNELS 3 Zrotation Xrotation Yrotation
        End Site
        {
          OFFSET 0 -7.69 17.5
        }
      }
    }
  }
  JOINT Spine
  {
    OFFSET 0.0381636 14.2969 0.0214663
    CHANNELS 3 Zrotation Xrotation Yrotation
    JOINT Spine1
    {
      OFFSET 0.0273681 9.71499 0.0100001
      CHANNELS 3 Zrotation Xrotation Yrotation
      JOINT Spine2
      {
        OFFSET 0.029022 10.1215 -0.000399631
        CHANNELS 3 Zrotation Xrotation Yrotation
        JOINT Spine3
        {
          OFFSET 0.0290531 9.71322 0.0107928
          CHANNELS 3 Zrotation Xrotation Yrotation
          JOINT Neck
          {
            OFFSET 0.0830829 10.3832 0.0498053
            CHANNELS 3 Zrotation Xrotation Yrotation
            JOINT Head
            {
              OFFSET 0.0700972 9.47827 0.0499309
              CHANNELS 3 Zrotation Xrotation Yrotation
              End Site
              {
                OFFSET 0 15.95 0
              }
            }
          }
          JOINT RightShoulder
          {
            OFFSET -3.16088 6.93633 0.0290789
            CHANNELS 3 Zrotation Xrotation Yrotation
            JOINT RightArm
            {
              OFFSET -12.7509 0.028765 0.0682708
              CHANNELS 3 Zrotation Xrotation Yrotation
              JOINT RightForeArm
              {
                OFFSET -26.5067 -0.0728143 0.13822
                CHANNELS 3 Zrotation Xrotation Yrotation
                JOINT RightHand
                {
                  OFFSET -25.9897 -0.0664148 0.00141744
                  CHANNELS 3 Zrotation Xrotation Yrotation
                  JOINT RightHandThumb1
                  {
                    OFFSET -2.48905 0.190105 3.12053
                    CHANNELS 3 Zrotation Xrotation Yrotation
                    JOINT RightHandThumb2
                    {
                      OFFSET -3.68274 0 0
                      CHANNELS 3 Zrotation Xrotation Yrotation
                      JOINT RightHandThumb3
                      {
                        OFFSET -2.55832 0 0
                        CHANNELS 3 Zrotation Xrotation Yrotation
                        End Site
                        {
                          OFFSET -2.194 0 0
                        }
                      }
                    }
                  }
                  JOINT RightInHandIndex
                  {
                    OFFSET -3.22368 0.508421 1.97842
                    CHANNELS 3 Zrotation Xrotation Yrotation
                    JOINT RightHandIndex1
                    {
                      OFFSET -5.21684 -0.091368 0.999158
                      CHANNELS 3 Zrotation Xrotation Yrotation
                      JOINT RightHandIndex2
                      {
                        OFFSET -3.61937 0 0
                        CHANNELS 3 Zrotation Xrotation Yrotation
                        JOINT RightHandIndex3
                        {
                          OFFSET -2.0521 0 0
                          CHANNELS 3 Zrotation Xrotation Yrotation
                          End Site
                          {
                            OFFSET -1.805 0 0
                          }
                        }
                      }
                    }
                  }
                  JOINT RightInHandMiddle
                  {
                    OFFSET -3.38211 0.517263 0.756737
                    CHANNELS 3 Zrotation Xrotation Yrotation
                    JOINT RightHandMiddle1
                    {
                      OFFSET -5.17411 -0.084 0.313895
                      CHANNELS 3 Zrotation Xrotation Yrotation
                      JOINT RightHandMiddle2
                      {
                        OFFSET -3.94947 0 0
                        CHANNELS 3 Zrotation Xrotation Yrotation
                        JOINT RightHandMiddle3
                        {
                          OFFSET -2.47579 0 0
                          CHANNELS 3 Zrotation Xrotation Yrotation
                          End Site
                          {
                            OFFSET -1.975 0 0
                          }
                        }
                      }
                    }
                  }
                  JOINT RightInHandRing
                  {
                    OFFSET -3.36516 0.537895 -0.128947
                    CHANNELS 3 Zrotation Xrotation Yrotation
                    JOINT RightHandRing1
                    {
                      OFFSET -4.63474 -0.022105 -0.478947
                      CHANNELS 3 Zrotation Xrotation Yrotation
                      JOINT RightHandRing2
                      {
                        OFFSET -3.44238 0 0
                        CHANNELS 3 Zrotation Xrotation Yrotation
                        JOINT RightHandRing3
                        {
                          OFFSET -2.3881 0 0
                          CHANNELS 3 Zrotation Xrotation Yrotation
                          End Site
                          {
                            OFFSET -1.857 0 0
                          }
                        }
                      }
                    }
                  }
                  JOINT RightInHandPinky
                  {
                    OFFSET -3.16105 0.469368 -1.20179
                    CHANNELS 3 Zrotation Xrotation Yrotation
                    JOINT RightHandPinky1
                    {
                      OFFSET -4.14105 -0.022105 -1.09053
                      CHANNELS 3 Zrotation Xrotation Yrotation
                      JOINT RightHandPinky2
                      {
                        OFFSET -2.75653 0 0
                        CHANNELS 3 Zrotation Xrotation Yrotation
                        JOINT RightHandPinky3
                        {
                          OFFSET -1.74189 0 0
                          CHANNELS 3 Zrotation Xrotation Yrotation
                          End Site
                          {
                            OFFSET -1.645 0 0
                          }
                        }
                      }
                    }
                  }
                }
              }
            }
          }
          JOINT LeftShoulder
          {
            OFFSET 3.23403 6.91572 -0.0126821
            CHANNELS 3 Zrotation Xrotation Yrotation
            JOINT LeftArm
            {
              OFFSET 12.8488 -0.0444641 -0.0528339
              CHANNELS 3 Zrotation Xrotation Yrotation
              JOINT LeftForeArm
              {
                OFFSET 26.4942 -0.0237746 -0.09002
                CHANNELS 3 Zrotation Xrotation Yrotation
                JOINT LeftHand
                {
                  OFFSET 25.9989 -0.00653758 -0.026747
                  CHANNELS 3 Zrotation Xrotation Yrotation
                  JOINT LeftHandThumb1
                  {
                    OFFSET 2.48905 0.190105 3.12053
                    CHANNELS 3 Zrotation Xrotation Yrotation
                    JOINT LeftHandThumb2
                    {
                      OFFSET 3.68274 0 0
                      CHANNELS 3 Zrotation Xrotation Yrotation
                      JOINT LeftHandThumb3
                      {
                        OFFSET 2.55832 0 0
                        CHANNELS 3 Zrotation Xrotation Yrotation
                        End Site
                        {
                          OFFSET 2.194 0 0
                        }
                      }
                    }
                  }
                  JOINT LeftInHandIndex
                  {
                    OFFSET 3.22368 0.508421 1.97842
                    CHANNELS 3 Zrotation Xrotation Yrotation
                    JOINT LeftHandIndex1
                    {
                      OFFSET 5.21684 -0.091368 0.999158
                      CHANNELS 3 Zrotation Xrotation Yrotation
                      JOINT LeftHandIndex2
                      {
                        OFFSET 3.61937 0 0
                        CHANNELS 3 Zrotation Xrotation Yrotation
                        JOINT LeftHandIndex3
                        {
                          OFFSET 2.0521 0 0
                          CHANNELS 3 Zrotation Xrotation Yrotation
                          End Site
                          {
                            OFFSET 1.805 0 0
                          }
                        }
                      }
                    }
                  }
                  JOINT LeftInHandMiddle
                  {
                    OFFSET 3.38211 0.517263 0.756737
                    CHANNELS 3 Zrotation Xrotation Yrotation
                    JOINT LeftHandMiddle1
                    {
                      OFFSET 5.17411 -0.084 0.313895
                      CHANNELS 3 Zrotation Xrotation Yrotation
                      JOINT LeftHandMiddle2
                      {
                        OFFSET 3.94947 0 0
                        CHANNELS 3 Zrotation Xrotation Yrotation
                        JOINT LeftHandMiddle3
                        {
                          OFFSET 2.47579 0 0
                          CHANNELS 3 Zrotation Xrotation Yrotation
                          End Site
                          {
                            OFFSET 1.975 0 0
                          }
                        }
                      }
                    }
                  }
                  JOINT LeftInHandRing
                  {
                    OFFSET 3.36516 0.537895 -0.128947
                    CHANNELS 3 Zrotation Xrotation Yrotation
                    JOINT LeftHandRing1
                    {
                      OFFSET 4.63474 -0.022105 -0.478947
                      CHANNELS 3 Zrotation Xrotation Yrotation
                      JOINT LeftHandRing2
                      {
                        OFFSET 3.44238 0 0
                        CHANNELS 3 Zrotation Xrotation Yrotation
                        JOINT LeftHandRing3
                        {
                          OFFSET 2.3881 0 0
                          CHANNELS 3 Zrotation Xrotation Yrotation
                          End Site
                          {
                            OFFSET 1.857 0 0
                          }
                        }
                      }
                    }
                  }
                  JOINT LeftInHandPinky
                  {
                    OFFSET 3.16105 0.469368 -1.20179
                    CHANNELS 3 Zrotation Xrotation Yrotation
                    JOINT LeftHandPinky1
                    {
                      OFFSET 4.14105 -0.022105 -1.09053
                      CHANNELS 3 Zrotation Xrotation Yrotation
                      JOINT LeftHandPinky2
                      {
                        OFFSET 2.75653 0 0
                        CHANNELS 3 Zrotation Xrotation Yrotation
                        JOINT LeftHandPinky3
                        {
                          OFFSET 1.74189 0 0
                          CHANNELS 3 Zrotation Xrotation Yrotation
                          End Site
                          {
                            OFFSET 1.645 0 0
                          }
                        }
                      }
                    }
                  }
                }
              }
            }
          }
        }
      }
    }
  }
}
MOTION
Frames:	4
Frame Time:	0.00833333
362.989 88.0403 174.214 24.7213 0.453573 -140.566 35.4381 -34.2633 26.0696 -6.34197 11.9161 4.96952 5.60401 11.9267 57.9121 34.9952 -10.9267 20.2767 -28.74 40.8919 29.3592 6.10312 -20.1529 19.1451 -2.96617 -5.25358 -12.1037 -0.638391 -1.40155 -2.97153 -1.08976 -2.32462 -4.86097 -0.694323 -0.478228 2.8005 0.525307 -7.62942 45.6546 -11.2916 10.0183 27.4144 -0.857345 2.55348 3.826 29.2781 -64.5032 -2.08137 47.7199 0.405744 115.817 5.75216 -24.0421 3.8457 28.184 10.7294 19.1592 3.55204e-15 3.97569e-16 -10 1.49867e-15 5.56597e-15 -10 -4.15584e-15 -1.59028e-15 -3.97569e-16 19.9818 0.871897 2.3964 24 4.77083e-15 -1.43125e-14 20 3.97569e-15 7.95139e-15 -4.15584e-15 -1.59028e-15 -3.97569e-16 20 -3.18055e-15 -5.56597e-15 24 6.36111e-15 -1.27222e-14 20 -1.59028e-15 1.43125e-14 -4.15584e-15 -1.59028e-15 -3.97569e-16 19.9748 -1.02565 -2.81938 24 4.77083e-15 1.59028e-15 20 1.11319e-14 1.43125e-14 -4.15584e-15 -1.59028e-15 -3.97569e-16 19.7815 -3.00948 -8.30515 24 -3.18055e-15 -3.97569e-15 20 3.18055e-15 1.59028e-15 2.84428 -24.4671 -53.7027 -22.3836 25.9747 -100.852 29.7333 -10.6998 -30.4688 -35.8378 -13.3055 -16.6061 -28.184 10.7294 -19.1592 -1.17243e-14 2.38542e-15 10 -2.04879e-14 0 10 -9.29318e-15 -4.77083e-15 -1.19271e-15 -19.9818 0.871897 -2.3964 -24 -2.78299e-15 -6.36111e-15 -20 -2.78299e-15 6.36111e-15 -9.29318e-15 -4.77083e-15 -1.19271e-15 -20 -3.18055e-15 7.15625e-15 -24 1.59028e-15 1.59028e-15 -20 -1.19271e-15 3.18055e-15 -9.29318e-15 -4.77083e-15 -1.19271e-15 -19.9748 -1.02565 2.81938 -24 7.95139e-16 5.56597e-15 -20 -3.97569e-15 7.95139e-15 -9.29318e-15 -4.77083e-15 -1.19271e-15 -19.7815 -3.00948 8.30515 -24 0 3.57812e-15 -20 -6.36111e-15 9.54166e-15 
362.992 88.0345 174.234 24.7444 0.503643 -140.727 35.4381 -34.3796 25.6076 -6.26096 12.0264 5.37148 5.606 11.9656 58.0347 34.9697 -11.0675 19.9325 -28.9589 40.9585 29.7723 6.15627 -20.0761 19.2807 -2.94552 -5.28396 -12.1298 -0.632402 -1.40816 -2.97839 -1.08006 -2.33497 -4.87226 -0.692039 -0.471047 2.80382 0.516543 -7.53716 45.6741 -11.2656 10.0934 27.4671 -0.846658 2.60168 3.92046 29.1831 -64.5002 -2.31268 47.5466 0.359157 115.938 5.3655 -23.3187 2.90377 28.184 10.7294 19.1592 -7.54866e-16 8.59744e-15 -10 4.39307e-15 9.44227e-15 -10 -1.26725e-15 -1.59028e-15 -1.39149e-15 19.9818 0.871897 2.3964 24 1.59028e-15 -9.54166e-15 20 1.98785e-15 1.59028e-14 -1.26725e-15 -1.59028e-15 -1.39149e-15 20 -3.18055e-15 -5.1684e-15 24 1.59028e-15 -1.11319e-14 20 -1.59028e-15 1.74931e-14 -1.26725e-15 -1.59028e-15 -1.39149e-15 19.9748 -1.02565 -2.81938 24 3.18055e-15 -0 20 1.27222e-14 1.74931e-14 -1.26725e-15 -1.59028e-15 -1.39149e-15 19.7815 -3.00948 -8.30515 24 0 -3.77691e-15 20 4.77083e-15 3.97569e-15 2.84202 -24.387 -53.68 -22.3699 25.9823 -100.81 29.6235 -10.7277 -30.5941 -35.8495 -13.2678 -16.6747 -28.184 10.7294 -19.1592 -1.09954e-14 3.97569e-15 10 -1.43426e-14 -7.95139e-16 10 -1.15792e-14 -3.18055e-15 -2.78299e-15 -19.9818 0.871897 -2.3964 -24 -3.18055e-15 -6.36111e-15 -20 -2.68359e-15 7.95139e-15 -1.15792e-14 -3.18055e-15 -2.78299e-15 -20 -4.77083e-15 7.15625e-15 -24 1.59028e-15 -0 -20 -5.96354e-16 6.36111e-15 -1.15792e-14 -3.18055e-15 -2.78299e-15 -19.9748 -1.02565 2.81938 -24 3.97569e-15 7.15625e-15 -20 -5.56597e-15 4.77083e-15 -1.15792e-14 -3.18055e-15 -2.78299e-15 -19.7815 -3.00948 8.30515 -24 0 3.57812e-15 -20 -3.18055e-15 1.19271e-14 
362.999 88.0193 174.261 24.78 0.55954 -140.896 35.5059 -34.4339 25.4101 -6.2036 12.103 5.52938 5.53152 12.0295 58.216 34.992 -11.1345 19.7742 -29.0965 41.0719 29.946 6.20759 -20.018 19.4338 -2.90941 -5.31094 -12.1315 -0.622877 -1.4136 -2.98028 -1.0644 -2.34222 -4.87588 -0.690328 -0.465919 2.80624 0.511214 -7.47667 45.6869 -11.2603 10.1684 27.5033 -0.839984 2.64893 4.10476 28.898 -64.5375 -2.75847 47.4058 0.326167 116.041 5.12885 -22.8139 2.28608 28.184 10.7294 19.1592 5.33634e-15 -2.68359e-15 -10 1.95259e-14 4.37326e-15 -10 -4.96962e-16 3.18055e-15 -9.93923e-16 19.9818 0.871897 2.3964 24 -7.95139e-16 -1.43125e-14 20 3.18055e-15 1.27222e-14 -4.96962e-16 3.18055e-15 -9.93923e-16 20 3.18055e-15 -7.15625e-15 24 6.36111e-15 -1.35174e-14 20 -7.95139e-16 1.27222e-14 -4.96962e-16 3.18055e-15 -9.93923e-16 19.9748 -1.02565 -2.81938 24 6.36111e-15 1.59028e-15 20 9.54166e-15 1.59028e-14 -4.96962e-16 3.18055e-15 -9.93923e-16 19.7815 -3.00948 -8.30515 24 0 -5.56597e-15 20 -3.18055e-15 1.59028e-15 2.85359 -24.3056 -53.6519 -22.356 26.0053 -100.817 29.5605 -10.7238 -30.6623 -35.8534 -13.2308 -16.7571 -28.184 10.7294 -19.1592 -1.22065e-14 3.97569e-15 10 -1.44828e-14 0 10 -1.16786e-14 0 -2.78299e-15 -19.9818 0.871897 -2.3964 -24 -3.97569e-15 -4.77083e-15 -20 -3.97569e-15 7.95139e-15 -1.16786e-14 0 -2.78299e-15 -20 -5.56597e-15 6.36111e-15 -24 7.95139e-16 -1.59028e-15 -20 -3.97569e-16 3.18055e-15 -1.16786e-14 0 -2.78299e-15 -19.9748 -1.02565 2.81938 -24 -1.59028e-15 7.15625e-15 -20 -5.56597e-15 6.36111e-15 -1.16786e-14 0 -2.78299e-15 -19.7815 -3.00948 8.30515 -24 -4.77083e-15 4.57205e-15 -20 -6.36111e-15 9.54166e-15 
363.009 88.007 174.288 24.847 0.634263 -141.031 35.6293 -34.427 25.4155 -6.17219 12.1278 5.46544 5.49642 12.0775 58.3914 35.1014 -11.1256 19.7537 -29.1759 41.1961 29.8895 6.25206 -19.9647 19.5963 -2.85886 -5.33765 -12.1329 -0.6095 -1.41316 -2.98289 -1.04279 -2.3477 -4.88078 -0.688608 -0.461491 2.80846 0.505887 -7.42351 45.7014 -11.2535 10.2265 27.5355 -0.825554 2.69744 4.23936 28.8325 -64.5441 -2.86392 47.2418 0.210986 116.076 5.22608 -23.0331 2.53222 28.184 10.7294 19.1592 2.80382e-15 8.74653e-15 -10 1.01871e-14 7.40473e-15 -10 4.05024e-15 3.18055e-15 -0 19.9818 0.871897 2.3964 24 -7.95139e-16 -1.27222e-14 20 1.98785e-15 1.11319e-14 4.05024e-15 3.18055e-15 -0 20 0 -4.37326e-15 24 3.18055e-15 -1.35174e-14 20 -7.95139e-16 1.43125e-14 4.05024e-15 3.18055e-15 -0 19.9748 -1.02565 -2.81938 24 3.18055e-15 1.59028e-15 20 7.95139e-15 1.59028e-14 4.05024e-15 3.18055e-15 -0 19.7815 -3.00948 -8.30515 24 -1.59028e-15 -4.96962e-15 20 3.18055e-15 4.77083e-15 2.90891 -24.2402 -53.5833 -22.357 26.0481 -100.844 29.5226 -10.731 -30.7336 -35.8567 -13.1876 -16.8432 -28.184 10.7294 -19.1592 -1.51279e-14 7.95139e-15 10 -1.81612e-14 3.97569e-15 10 -1.04362e-14 -1.59028e-15 -2.78299e-15 -19.9818 0.871897 -2.3964 -24 3.97569e-16 -7.95139e-15 -20 -2.5842e-15 4.77083e-15 -1.04362e-14 -1.59028e-15 -2.78299e-15 -20 -4.77083e-15 6.36111e-15 -24 1.59028e-15 -4.77083e-15 -20 1.98785e-15 1.59028e-15 -1.04362e-14 -1.59028e-15 -2.78299e-15 -19.9748 -1.02565 2.81938 -24 7.95139e-16 7.15625e-15 -20 -4.77083e-15 6.36111e-15 -1.04362e-14 -1.59028e-15 -2.78299e-15 -19.7815 -3.00948 8.30515 -24 1.59028e-15 3.57812e-15 -20 -4.77083e-15 7.95139e-15 
